<svg width="24" height="24" viewBox="0 0 24 24" fill="none" xmlns="http://www.w3.org/2000/svg">
<path d="M11.9998 13.9L9.86976 15.99C9.30976 16.55 8.99976 17.28 8.99976 18.06C8.99976 19.68 10.3498 21 11.9998 21C13.6498 21 14.9998 19.68 14.9998 18.06C14.9998 17.28 14.6898 16.54 14.1298 15.99L11.9998 13.9Z" fill="#FF1A1A"/>
<path d="M15.9998 7L15.5598 7.55C14.3798 9.02 11.9998 8.19 11.9998 6.3V3C11.9998 3 3.99976 7 3.99976 14C3.99976 16.92 5.55976 19.47 7.88976 20.86C7.32976 20.07 6.99976 19.1 6.99976 18.06C6.99976 16.74 7.51976 15.5 8.46976 14.56L11.9998 11.1L15.5298 14.57C16.4798 15.5 16.9998 16.74 16.9998 18.07C16.9998 19.09 16.6898 20.03 16.1498 20.82C18.0398 19.67 19.4398 17.76 19.8598 15.52C20.5198 11.97 18.7898 8.62 15.9998 7Z" fill="#FF1A1A"/>
</svg>
