<svg width="24" height="24" viewBox="0 0 24 24" fill="none" xmlns="http://www.w3.org/2000/svg">
<path d="M20.57 14.8605L21.29 14.1405C21.68 13.7505 21.68 13.1205 21.29 12.7305L21.27 12.7105C20.88 12.3205 20.25 12.3205 19.86 12.7105L17 15.5705L8.42998 7.00047L11.29 4.14047C11.68 3.75047 11.68 3.12047 11.29 2.73047L11.27 2.71047C10.88 2.32047 10.25 2.32047 9.85998 2.71047L9.13998 3.43047L8.41998 2.71047C8.02998 2.32047 7.38998 2.32047 6.99998 2.71047L5.56998 4.14047L4.84998 3.42047C4.45998 3.03047 3.80998 3.03047 3.41998 3.42047C3.02998 3.81047 3.02998 4.46047 3.41998 4.85047L4.13998 5.57047L2.70998 7.00047C2.31998 7.39047 2.31998 8.02047 2.70998 8.41047L3.42998 9.13047L2.70998 9.86047C2.31998 10.2505 2.31998 10.8805 2.70998 11.2705L2.72998 11.2905C3.11998 11.6805 3.74998 11.6805 4.13998 11.2905L6.99998 8.43047L15.57 17.0005L12.71 19.8605C12.32 20.2505 12.32 20.8805 12.71 21.2705L12.73 21.2905C13.12 21.6805 13.75 21.6805 14.14 21.2905L14.86 20.5705L15.58 21.2905C15.97 21.6805 16.6 21.6805 16.99 21.2905L18.42 19.8605L19.14 20.5805C19.53 20.9705 20.18 20.9705 20.57 20.5805C20.96 20.1905 20.96 19.5405 20.57 19.1505L19.85 18.4305L21.29 17.0005C21.68 16.6105 21.68 15.9805 21.29 15.5905L20.57 14.8605Z" fill="#775A0B"/>
</svg>
